<?xml version="1.0" standalone="no"?>
<!DOCTYPE svg PUBLIC "-//W3C//DTD SVG 20010904//EN"
 "http://www.w3.org/TR/2001/REC-SVG-20010904/DTD/svg10.dtd">
<svg version="1.0" xmlns="http://www.w3.org/2000/svg"
 width="3000.000000pt" height="940.000000pt" viewBox="0 0 3000.000000 940.000000"
 preserveAspectRatio="xMidYMid meet">

<g transform="translate(0.000000,940.000000) scale(0.100000,-0.100000)"
fill="#000000" stroke="none">
<path d="M0 4700 l0 -4700 15000 0 15000 0 0 4700 0 4700 -15000 0 -15000 0 0
-4700z m11630 -5 l0 -4465 -35 0 -35 0 0 4465 0 4465 35 0 35 0 0 -4465z
m-5970 3950 c579 -51 1086 -197 1629 -468 90 -45 180 -97 200 -114 45 -41 26
-34 -102 34 -350 188 -768 343 -1147 427 -374 82 -553 101 -950 101 -253 -1
-337 -5 -495 -24 -167 -20 -435 -67 -396 -70 32 -2 -8 -21 -99 -46 -727 -203
-1385 -591 -1900 -1121 -426 -438 -745 -969 -928 -1545 -183 -576 -220 -1207
-106 -1829 25 -137 94 -414 114 -460 l11 -25 -6 25 c-3 14 -21 86 -40 160 -88
350 -110 534 -110 940 0 331 6 410 47 660 39 240 150 639 210 753 38 72 31 17
-12 -104 -157 -440 -229 -905 -217 -1404 10 -415 70 -770 192 -1140 40 -121
135 -358 141 -352 2 2 -14 48 -36 102 -121 298 -250 809 -213 846 8 8 15 0 24
-30 7 -23 14 -40 16 -38 2 2 -5 60 -16 128 -34 213 -44 356 -44 619 0 358 36
638 123 960 289 1069 999 1936 1993 2435 207 104 347 155 450 162 133 11 78
-31 -251 -193 -141 -69 -309 -156 -372 -194 -910 -539 -1563 -1479 -1750
-2520 -69 -382 -78 -842 -24 -1205 28 -187 119 -584 131 -571 3 2 -2 28 -10
58 -53 185 -93 458 -108 748 -40 725 74 1299 377 1900 182 362 387 645 673
930 399 398 860 684 1398 870 893 309 1848 284 2743 -72 393 -156 768 -378
1100 -651 112 -93 350 -327 459 -452 407 -466 691 -1025 825 -1626 56 -253 91
-572 68 -629 l-10 -25 -10 25 c-5 14 -12 57 -16 95 -89 912 -476 1731 -1113
2355 -322 316 -624 535 -992 720 -811 406 -1785 515 -2669 299 -522 -128
-1009 -367 -1443 -710 -136 -108 -442 -414 -553 -554 -83 -105 -248 -345 -295
-430 -26 -46 -16 -33 88 115 144 207 440 529 666 725 575 498 1304 805 2059
866 185 15 565 7 734 -15 588 -77 1151 -292 1631 -623 176 -121 334 -254 512
-432 277 -277 440 -497 618 -832 173 -328 316 -768 272 -838 -18 -28 -38 7
-91 162 -193 558 -468 1010 -860 1411 -288 295 -582 510 -950 694 -512 257
-1005 373 -1580 373 -338 0 -558 -27 -869 -106 -165 -42 -259 -74 -286 -99
-14 -13 -103 -54 -198 -92 -230 -90 -509 -232 -645 -328 -62 -43 -117 -86
-124 -94 -7 -9 5 -3 27 14 52 40 122 76 129 66 10 -16 -25 -51 -177 -180 -366
-310 -632 -643 -867 -1086 -172 -324 -354 -863 -379 -1120 -16 -158 -13 -493
4 -664 120 -1151 833 -2147 1880 -2628 188 -87 394 -156 610 -204 186 -42 305
-58 515 -70 102 -6 201 -14 220 -17 l35 -6 -30 -9 c-38 -12 -330 -1 -490 17
-497 58 -998 247 -1415 533 -293 201 -601 503 -811 796 -148 206 -294 474
-387 711 -267 677 -311 1411 -127 2111 19 72 42 150 50 174 17 47 19 63 6 40
-39 -66 -145 -433 -180 -625 -45 -241 -49 -310 -35 -549 14 -238 17 -263 41
-431 10 -69 23 -119 34 -135 10 -14 41 -113 68 -220 94 -373 209 -659 382
-953 156 -265 296 -445 518 -667 508 -507 1153 -845 1851 -970 194 -34 384
-50 613 -50 399 0 728 51 1074 165 722 240 1291 652 1726 1248 121 166 188
276 290 477 49 96 95 182 104 190 14 13 15 13 10 -2 -3 -9 -2 -18 3 -20 11 -4
-73 -210 -147 -357 -324 -646 -824 -1154 -1448 -1471 -297 -151 -578 -246
-975 -329 -87 -17 11 -12 157 9 281 41 543 102 673 157 204 85 464 231 660
368 350 246 689 586 948 949 99 138 224 337 247 392 21 52 65 115 76 109 23
-15 -100 -271 -243 -506 -236 -390 -610 -787 -1004 -1066 -875 -619 -2034
-828 -3073 -552 -62 16 -115 28 -118 26 -12 -12 335 -94 517 -122 422 -64 982
-55 1451 25 324 56 742 194 1008 336 240 127 545 360 805 613 330 322 581 667
786 1079 96 192 134 289 169 427 106 423 141 786 116 1198 -5 79 -4 109 3 102
19 -18 33 -369 22 -563 -38 -652 -224 -1174 -607 -1699 -433 -594 -932 -1018
-1502 -1278 -574 -262 -1152 -375 -1776 -346 -261 12 -410 30 -644 77 -552
111 -1097 344 -1536 655 -200 142 -327 251 -520 444 -189 188 -308 327 -428
499 -34 48 -70 98 -80 110 -23 27 62 -107 128 -204 67 -98 74 -110 41 -80 -34
31 -192 269 -286 430 -294 508 -479 1051 -556 1634 -24 186 -30 578 -10 763
67 633 251 1142 613 1697 319 488 739 909 1228 1230 364 240 700 392 1170 530
28 8 43 15 34 15 -30 2 -370 -104 -536 -165 -142 -53 -436 -197 -598 -294
-862 -512 -1489 -1293 -1794 -2234 -188 -579 -233 -1231 -129 -1866 118 -723
474 -1445 971 -1967 204 -215 418 -401 625 -542 51 -35 95 -67 98 -72 12 -20
-16 -6 -82 39 -707 487 -1229 1178 -1488 1969 -127 391 -183 720 -193 1143
-12 521 57 975 218 1430 294 829 830 1522 1554 2004 488 326 1022 538 1600
635 129 22 346 49 435 54 158 9 513 5 660 -8z m2386 -3984 c-67 -74 -2829
-2831 -2835 -2831 -3 0 -650 644 -1436 1430 l-1430 1430 1435 1435 1435 1435
1432 -1432 1432 -1432 -33 -35z m6744 2493 c0 -15 -105 -114 -121 -114 -25 0
-24 3 14 66 29 49 35 53 70 54 20 0 37 -3 37 -6z m43 -180 c65 -45 97 -117 97
-219 0 -107 -20 -163 -74 -213 -57 -52 -132 -71 -214 -54 -70 15 -119 53 -152
118 -21 42 -25 63 -25 144 0 88 2 99 31 150 25 44 42 61 85 83 49 26 61 29
132 25 66 -4 84 -9 120 -34z m2064 18 c20 -11 21 -16 11 -38 -8 -16 -17 -23
-27 -19 -100 39 -199 17 -253 -56 -43 -57 -43 -211 0 -268 42 -57 66 -66 173
-65 96 0 99 -1 99 -22 0 -26 -12 -32 -93 -40 -183 -19 -288 92 -275 290 7 111
47 173 138 216 37 17 60 20 125 17 44 -2 90 -9 102 -15z m509 -227 c121 -308
112 -277 74 -273 -31 3 -35 8 -63 81 l-30 77 -103 0 -103 0 -29 -77 c-28 -72
-33 -78 -61 -81 -17 -2 -31 -1 -31 3 0 3 42 112 93 243 52 130 97 245 100 255
5 13 15 17 33 15 25 -3 33 -20 120 -243z m-1986 215 c50 -26 70 -64 70 -136 0
-52 -3 -59 -38 -94 -42 -42 -92 -60 -169 -60 l-53 0 0 -100 0 -100 -30 0 -30
0 0 255 0 255 105 0 c86 0 113 -4 145 -20z m620 -5 c0 -25 -1 -25 -80 -25
l-80 0 0 -230 0 -230 -30 0 -30 0 0 230 0 230 -85 0 c-84 0 -85 0 -85 25 l0
25 195 0 195 0 0 -25z m260 -230 l0 -255 -35 0 -35 0 0 255 0 255 35 0 35 0 0
-255z m-820 -1114 c154 -40 280 -113 392 -228 192 -197 279 -459 248 -745 -38
-343 -252 -627 -556 -737 -46 -17 -102 -34 -123 -37 l-39 -6 19 -33 c11 -18
42 -53 68 -78 157 -147 403 -169 592 -52 31 19 60 35 63 35 3 0 28 -30 56 -67
l51 -68 -28 -22 c-50 -40 -137 -81 -218 -104 -67 -18 -97 -21 -204 -17 -84 3
-143 11 -176 22 -168 59 -299 162 -390 306 -38 60 -52 70 -96 70 -88 0 -254
48 -348 101 -372 208 -539 663 -401 1092 39 122 105 232 197 328 142 149 290
226 498 260 85 13 311 2 395 -20z m1733 -553 c3 -488 6 -571 21 -627 50 -190
185 -330 363 -376 74 -19 242 -19 316 0 90 23 177 72 237 134 68 70 105 136
130 237 19 72 20 112 20 636 l0 558 105 0 105 0 0 -497 c0 -274 -5 -543 -10
-597 -34 -345 -244 -595 -561 -668 -30 -7 -115 -12 -189 -12 -110 0 -150 4
-215 22 -198 57 -352 188 -444 376 -75 155 -74 151 -78 799 l-4 577 100 0 100
0 4 -562z m3449 -312 c202 -477 368 -872 368 -877 0 -5 -49 -9 -108 -9 l-108
0 -106 253 -106 252 -437 0 -437 0 -106 -252 -106 -253 -108 0 c-60 0 -108 4
-108 9 0 9 725 1725 737 1744 2 4 61 6 130 5 l126 -3 369 -869z m1388 94 l0
-780 475 0 475 0 0 -100 0 -100 -575 0 -575 0 0 880 0 880 100 0 100 0 0 -780z
m2000 -100 l0 -880 -100 0 -100 0 0 880 0 880 100 0 100 0 0 -880z m2260 785
l0 -95 -305 0 -305 0 0 -785 0 -785 -100 0 -100 0 0 785 0 785 -305 0 -305 0
0 95 0 95 710 0 710 0 0 -95z m2140 0 l0 -95 -547 -2 -548 -3 -3 -292 -2 -293
490 0 490 0 0 -100 0 -100 -490 0 -490 0 0 -290 0 -290 548 -2 547 -3 3 -97 3
-98 -651 0 -650 0 0 880 0 880 650 0 650 0 0 -95z m-26480 -731 c-31 -472 33
-918 192 -1347 52 -137 187 -410 263 -532 105 -165 257 -358 385 -485 115
-116 172 -165 338 -292 72 -56 84 -84 15 -37 -179 123 -433 362 -573 539 -416
524 -639 1145 -657 1825 -7 282 16 560 44 531 3 -3 0 -94 -7 -202z m1358
-3623 c467 -233 973 -395 1492 -476 98 -16 130 -23 97 -24 -99 -2 -423 59
-658 124 -169 47 -416 131 -585 200 -234 96 -492 225 -449 225 3 0 49 -22 103
-49z"/>
<path d="M4348 8523 c6 -2 18 -2 25 0 6 3 1 5 -13 5 -14 0 -19 -2 -12 -5z"/>
<path d="M3084 7248 l-19 -23 23 19 c21 18 27 26 19 26 -2 0 -12 -10 -23 -22z"/>
<path d="M2110 6330 c-6 -11 -8 -20 -6 -20 3 0 10 9 16 20 6 11 8 20 6 20 -3
0 -10 -9 -16 -20z"/>
<path d="M1491 3884 c0 -11 3 -14 6 -6 3 7 2 16 -1 19 -3 4 -6 -2 -5 -13z"/>
<path d="M1511 3794 c0 -11 3 -14 6 -6 3 7 2 16 -1 19 -3 4 -6 -2 -5 -13z"/>
<path d="M1601 3474 c-1 -15 40 -136 45 -131 2 2 -7 35 -20 73 -14 38 -25 64
-25 58z"/>
<path d="M1666 3280 c3 -14 11 -32 16 -40 6 -10 7 -7 2 10 -3 14 -11 32 -16
40 -6 10 -7 7 -2 -10z"/>
<path d="M1690 3215 c0 -5 5 -17 10 -25 5 -8 10 -10 10 -5 0 6 -5 17 -10 25
-5 8 -10 11 -10 5z"/>
<path d="M1711 3168 c-2 -22 155 -349 237 -493 70 -123 188 -302 250 -380 157
-197 424 -469 596 -606 35 -28 30 -23 -14 17 -131 117 -354 342 -443 447 -244
288 -414 563 -610 987 -8 19 -16 32 -16 28z"/>
<path d="M2865 1630 c10 -11 20 -20 23 -20 3 0 -3 9 -13 20 -10 11 -20 20 -23
20 -3 0 3 -9 13 -20z"/>
<path d="M2900 1606 c0 -2 8 -10 18 -17 15 -13 16 -12 3 4 -13 16 -21 21 -21
13z"/>
<path d="M2940 1576 c0 -2 8 -10 18 -17 15 -13 16 -12 3 4 -13 16 -21 21 -21
13z"/>
<path d="M3340 1476 c0 -3 14 -12 30 -21 17 -9 30 -13 30 -11 0 3 -13 12 -30
21 -16 9 -30 13 -30 11z"/>
<path d="M3425 1424 c41 -32 385 -194 525 -247 460 -175 892 -247 1405 -233
393 10 385 21 -15 21 -398 0 -479 7 -775 66 -343 68 -671 178 -1025 345 -74
35 -126 57 -115 48z"/>
<path d="M3290 1336 c0 -3 9 -10 20 -16 11 -6 20 -8 20 -6 0 3 -9 10 -20 16
-11 6 -20 8 -20 6z"/>
<path d="M5753 1043 c9 -2 25 -2 35 0 9 3 1 5 -18 5 -19 0 -27 -2 -17 -5z"/>
<path d="M3920 1030 c8 -5 20 -10 25 -10 6 0 3 5 -5 10 -8 5 -19 10 -25 10 -5
0 -3 -5 5 -10z"/>
<path d="M4045 985 c17 -8 37 -14 45 -14 8 0 -1 7 -20 14 -46 18 -64 17 -25 0z"/>
<path d="M5828 983 c7 -3 16 -2 19 1 4 3 -2 6 -13 5 -11 0 -14 -3 -6 -6z"/>
<path d="M5733 973 c9 -2 25 -2 35 0 9 3 1 5 -18 5 -19 0 -27 -2 -17 -5z"/>
<path d="M3880 6015 l-1325 -1325 1328 -1328 1327 -1327 1327 1327 1328 1328
-1325 1325 c-729 729 -1327 1325 -1330 1325 -3 0 -601 -596 -1330 -1325z
m2178 -2172 l-843 -843 -847 847 -848 848 842 842 843 843 847 -847 848 -848
-842 -842z"/>
<path d="M4425 5470 l-780 -780 780 -780 c429 -429 782 -780 785 -780 3 0 357
348 785 774 l780 774 -780 784 c-429 430 -782 784 -785 786 -3 1 -356 -349
-785 -778z"/>
<path d="M14637 6946 c-20 -7 -45 -20 -54 -27 -56 -47 -73 -218 -30 -299 29
-56 74 -80 148 -80 112 0 164 67 164 210 -1 131 -43 191 -145 204 -28 4 -59 1
-83 -8z"/>
<path d="M17250 6831 c-19 -53 -36 -102 -38 -108 -3 -10 17 -13 72 -13 42 0
76 3 76 8 0 4 -17 53 -38 108 l-38 102 -34 -97z"/>
<path d="M15230 6845 c0 -120 -5 -115 101 -95 63 12 88 33 95 81 13 78 -36
119 -141 119 l-55 0 0 -105z"/>
<path d="M15140 5459 c-386 -42 -631 -369 -589 -784 18 -179 74 -300 195 -422
65 -66 97 -90 165 -123 120 -57 205 -73 359 -67 205 9 324 59 456 191 134 134
195 292 195 506 0 140 -21 235 -76 347 -125 254 -391 387 -705 352z"/>
<path d="M20106 5288 c-30 -73 -109 -261 -174 -418 l-119 -285 179 -3 c99 -1
257 -1 352 0 l173 3 -172 412 c-94 227 -174 415 -177 418 -3 3 -31 -54 -62
-127z"/>
</g>
</svg>
