<svg xmlns="http://www.w3.org/2000/svg" xmlns:xlink="http://www.w3.org/1999/xlink" viewBox="0 0 500 500"><defs><clipPath id="freepik--clip-path--inject-3"><path d="M302.33,92.75a185.35,185.35,0,0,0-52.08,14.53,176.91,176.91,0,0,0-31.85,18.49c-14.59,10.65-27.54,23.88-45.51,28.74-20.65,5.6-42.65,1.23-63.14,7.67-53.1,16.67-65.58,93.7-25.62,129.66,14,12.62,29.22,23.94,42.59,37.28,14.47,14.43,25.77,31,42.05,43.82a167.54,167.54,0,0,0,55.43,28.8c44,13.09,94.86,7.8,133.43-17.77,34-22.54,57.87-58.22,70.37-96.66a208.66,208.66,0,0,0,9.86-51.72,182.88,182.88,0,0,0-17.07-89.75C398.8,99.66,349.4,86.84,302.33,92.75Z" style="fill:none"></path></clipPath><clipPath id="freepik--clip-path-2--inject-3"><path d="M248.37,254.9s-7.78,2.59-7.78,7,1.11,13,1.11,13S229.48,306,227.62,309s-8.52,5.55-8.52,8.52-13.33,22.59-9.26,37.78,11.86,12.59,17.78,8.89,21.49-17.41,22.6-18.52-.37-40,2.22-54.82a270.85,270.85,0,0,0,3.34-30.38C256.15,256,248.37,254.9,248.37,254.9Z" style="fill:#C47979;stroke:#263238;stroke-linecap:round;stroke-linejoin:round"></path></clipPath><clipPath id="freepik--clip-path-3--inject-3"><path d="M229.48,340.09s-6.67-13-11.49-21.11-12.59-32.6-12.59-32.6-3.7-6.67-13-5.93-11.49,18.9-10,34.08,13.34,38.53,24.08,47.05,18.06,4.91,25.93-1.86" style="fill:#C47979;stroke:#263238;stroke-linecap:round;stroke-linejoin:round"></path></clipPath><clipPath id="freepik--clip-path-4--inject-3"><path d="M211.33,242.3c.74-4.44-4.47-2.77-7.23,2.75-1,2-1.29,5-1.29,7.62s-12.23,3.34-15.93,7.78-6.3,11.49,2.22,22.23c0,0-1.85,18.89,4.45,19.63s12.22-9.26,11.85-15.93a38.29,38.29,0,0,1,.1-4.54c1.49-2,3.33-4.86,3.33-7.21,0-3.73-1.05-7.11-1.16-10.13.45-3.13.85-6,1.06-8.12C209.47,249,210.59,246.75,211.33,242.3Z" style="fill:#fff;stroke:#263238;stroke-linecap:round;stroke-linejoin:round"></path></clipPath><clipPath id="freepik--clip-path-5--inject-3"><ellipse cx="195.31" cy="195.97" rx="33.93" ry="22.69" transform="translate(-5.15 386.66) rotate(-88.67)" style="fill:#fff;stroke:#263238;stroke-linecap:round;stroke-linejoin:round"></ellipse></clipPath><clipPath id="freepik--clip-path-6--inject-3"><path d="M320.23,225.26s12.59.74,20.37,4.82,13,10,24.45,12.59,11.11,7.78,8.52,23.34-25.19,87.79-29.64,102.6-1.11,42.23-1.11,42.23H237.63s6.29-35.56,5.18-60-3.7-40.74-.37-56.67S248,272.31,248,272.31s-4.08-17,.37-17.41,24.81-4.45,34.45-14.82S311.34,224.15,320.23,225.26Z" style="fill:#C47979;stroke:#263238;stroke-linecap:round;stroke-linejoin:round"></path></clipPath><clipPath id="freepik--clip-path-7--inject-3"><path d="M297.63,221.56s2.22,9.63-1.11,24.82-24.08,48.52-30.74,67.78-1.86,96.31-1.86,96.31h20s-1.48-66.3,5.18-89.64S318,271.57,318,271.57s8.89-10,7.78-27.42-3.7-35.93-3.7-35.93S303.93,219.71,297.63,221.56Z" style="fill:#fff;stroke:#263238;stroke-linecap:round;stroke-linejoin:round"></path></clipPath><clipPath id="freepik--clip-path-8--inject-3"><path d="M273.93,153.4s-1.12,21.86-.75,28.16-1.85,18.52,1.12,24.44,11.85,18.52,16.66,19.63,11.49-2.59,13.71-4.44,13.33-7.41,17.41-13,4.07-14.44,4.07-14.44,5.93-1.11,7.41-6.3-1.85-9.63-1.85-9.63l-8.15-1.11a29.51,29.51,0,0,1-16.67-9.26c-7.41-8.15-8.89-19.63-16.67-22.6S276.89,149.7,273.93,153.4Z" style="fill:#fff;stroke:#263238;stroke-linecap:round;stroke-linejoin:round"></path></clipPath><clipPath id="freepik--clip-path-9--inject-3"><path d="M353.56,257.12s11.49-11.48,20.75-9.26,26.3,14.82,20.37,33.71-20,38.89-31.86,50.74S340.23,361.2,328,364.17,314.3,345.65,318.75,329s28.52-55.56,28.52-55.56Z" style="fill:#C47979;stroke:#263238;stroke-linecap:round;stroke-linejoin:round"></path></clipPath><clipPath id="freepik--clip-path-10--inject-3"><path d="M331.34,187.11s.62-10.77-3.73-10.54c-2.25.11-2.57,9.43-1.83,12.76s-1.48,8.52-2.59,15.19-.37,13,1.11,15.19,2.59,4.07,2.59,4.07l1.49,12.6,13-.37s-1.48-12.23,0-18.15,4.28-23.27,1.62-31C339.25,176.13,332.71,170,331.05,172c-1.15,1.37,2.78,7.06,3.89,10.76a20.89,20.89,0,0,1,.84,6.95s-1.11,3.34-3,4.82S331.34,187.11,331.34,187.11Z" style="fill:#fff;stroke:#263238;stroke-linecap:round;stroke-linejoin:round"></path></clipPath><clipPath id="freepik--clip-path-11--inject-3"><path d="M346.9,203s4.44-8.52,2.59-10-8.89-7.78-11.48-8.52-7,9.26-7,9.26-.74,3.33,1.48,3.33S346.9,203,346.9,203Z" style="fill:#fff;stroke:#263238;stroke-linecap:round;stroke-linejoin:round"></path></clipPath><clipPath id="freepik--clip-path-12--inject-3"><path d="M344.3,209.71s5.56-8.52,3.71-10-8.89-7.78-11.48-8.52-7,9.26-7,9.26-.74,3.33,1.48,3.33S344.3,209.71,344.3,209.71Z" style="fill:#fff;stroke:#263238;stroke-linecap:round;stroke-linejoin:round"></path></clipPath><clipPath id="freepik--clip-path-13--inject-3"><path d="M337.64,223.41s9.79-15.26,8-16.68-8.48-7.43-11-8.14-6.71,8.85-6.71,8.85a4.68,4.68,0,0,0,.09,2.32c.41.25,2.3,1.35,3.62.69a3.07,3.07,0,0,0,1.48-2.6l4.08,1.86-.57,2.65" style="fill:#fff;stroke:#263238;stroke-linecap:round;stroke-linejoin:round"></path></clipPath><clipPath id="freepik--clip-path-14--inject-3"><path d="M343.93,353.06c-8.15,7.4-19.26,16.29-25.55,7.4s-4.82-53.71-5.93-63,3.33-27.78.74-36.67-1.48-26.67-1.48-26.67L347.27,229s5.18,27,4.44,43.34,5.93,30.37,7,41.11-2.59,21.12-6.3,25.19" style="fill:#C47979;stroke:#263238;stroke-linecap:round;stroke-linejoin:round"></path></clipPath><clipPath id="freepik--clip-path-15--inject-3"><path d="M317.9,177.62,295,175.47s3.89,12.36,5.86,13.74,8,2.1,11.32,1.47S317.9,177.62,317.9,177.62Z" style="fill:#fff;stroke:#263238;stroke-linecap:round;stroke-linejoin:round"></path></clipPath><clipPath id="freepik--clip-path-16--inject-3"><path d="M285.41,174.15l-22.6-3.71s3,12.23,4.82,13.71,7.78,2.59,11.11,2.22S285.41,174.15,285.41,174.15Z" style="fill:#fff;stroke:#263238;stroke-linecap:round;stroke-linejoin:round"></path></clipPath></defs><g id="freepik--background-simple--inject-3"><path d="M400.47,118c-1.41-1.3-2.85-2.56-4.33-3.76H271.07v164h129.4Z" style="fill:#C47979"></path><path d="M387.75,108.27a99.09,99.09,0,0,0-18.37-9.1h-97.3l-1,.32v8.78Z" style="fill:#C47979"></path><polygon points="255.47 114.27 255.47 293.35 400.48 293.35 400.48 284.26 265.07 284.26 265.07 114.27 255.47 114.27" style="fill:#C47979"></polygon><path d="M346.4,93.17a157.37,157.37,0,0,0-44.07-.42c-1,.13-2.07.28-3.1.42Z" style="fill:#C47979"></path><path d="M416.07,137.12a89.35,89.35,0,0,0-9.6-13V278.26h9.6Z" style="fill:#C47979"></path><path d="M422.07,148.64V284.26h-15.6v15.09h-157V108.27h15.6v-6.83c-5.1,1.75-10.06,3.71-14.82,5.84a176.91,176.91,0,0,0-31.85,18.49c-14.59,10.65-27.54,23.88-45.51,28.74-20.65,5.6-42.65,1.23-63.14,7.67-53.1,16.67-65.58,93.7-25.62,129.66,14,12.62,29.22,23.94,42.59,37.28,14.47,14.43,25.77,31,42.05,43.82a167.54,167.54,0,0,0,55.43,28.8c44,13.09,94.86,7.8,133.43-17.77,34-22.54,57.87-58.22,70.37-96.66a208.66,208.66,0,0,0,9.86-51.72A183.23,183.23,0,0,0,422.07,148.64Z" style="fill:#C47979"></path><path d="M387.75,108.27a99.09,99.09,0,0,0-18.37-9.1h-97.3l-1,.32v8.78Z" style="fill:#fff;opacity:0.7000000000000001"></path><path d="M400.47,118c-1.41-1.3-2.85-2.56-4.33-3.76H271.07v164h129.4Z" style="fill:#fff;opacity:0.7000000000000001"></path><polygon points="255.47 114.27 255.47 293.35 400.48 293.35 400.48 284.26 265.07 284.26 265.07 114.27 255.47 114.27" style="fill:#fff;opacity:0.7000000000000001"></polygon><path d="M416.07,137.12a89.35,89.35,0,0,0-9.6-13V278.26h9.6Z" style="fill:#fff;opacity:0.7000000000000001"></path><path d="M346.4,93.17a157.37,157.37,0,0,0-44.07-.42c-1,.13-2.07.28-3.1.42Z" style="fill:#fff;opacity:0.7000000000000001"></path><path d="M422.07,148.64V284.26h-15.6v15.09h-157V108.27h15.6v-6.83c-5.1,1.75-10.06,3.71-14.82,5.84a176.91,176.91,0,0,0-31.85,18.49c-14.59,10.65-27.54,23.88-45.51,28.74-20.65,5.6-42.65,1.23-63.14,7.67-53.1,16.67-65.58,93.7-25.62,129.66,14,12.62,29.22,23.94,42.59,37.28,14.47,14.43,25.77,31,42.05,43.82a167.54,167.54,0,0,0,55.43,28.8c44,13.09,94.86,7.8,133.43-17.77,34-22.54,57.87-58.22,70.37-96.66a208.66,208.66,0,0,0,9.86-51.72A183.23,183.23,0,0,0,422.07,148.64Z" style="fill:#fff;opacity:0.7000000000000001"></path></g><g id="freepik--Plants--inject-3"><path d="M73,217.33a4.37,4.37,0,0,1,3.51-5.47c3.65-.49,8.14,4.42,9.56,7.39.13.25,1.58,4.49,1.52,4.49s-6.48.15-9.13-1C76.2,221.75,73.6,219.87,73,217.33Zm93.91-11.26c-.54,2.55-3.09,4.5-5.31,5.54s-7.5,1.23-8.8,1.26c-.7.83-1.45,1.73-2.25,2.74-1.39,1.79-2.94,3.82-4.49,6.14-.41.62-.83,1.3-1.25,2,.94-1,2.23-2.25,2.37-2.36,2.58-2.06,8.76-4.51,11.83-2.47a4.37,4.37,0,0,1,.77,6.45c-1.66,2-4.81,2.57-7.27,2.47s-7.38-2.43-8.42-3c-.91,1.46-1.8,3-2.64,4.63a57.18,57.18,0,0,0-3.87,9.24l.19.1c.75-1,2.38-3,2.54-3.17,2.33-2.32,8.21-5.44,11.48-3.75a4.37,4.37,0,0,1,1.47,6.33c-1.42,2.18-4.5,3.08-6.95,3.25-2.83.2-8.68-2-8.9-2.09a76.72,76.72,0,0,0-2.12,9.74c-.38,2.43-.67,4.91-.93,7.41.51-.71,2.64-3.38,2.82-3.56,2.33-2.32,8.21-5.44,11.49-3.75a4.37,4.37,0,0,1,1.46,6.33c-1.42,2.18-4.49,3.08-7,3.26-2.76.19-8.37-1.9-8.84-2.08-.12,1.13-.25,2.26-.36,3.4-.36,3.7-.7,7.42-1.16,11.07-.15,1.27-.36,2.51-.55,3.76.8-1,2.28-2.89,2.43-3,2.33-2.32,8.21-5.43,11.49-3.74a4.36,4.36,0,0,1,1.46,6.32c-1.42,2.18-4.5,3.09-6.95,3.26s-7.22-1.48-8.55-2c-.35,2.07-.73,4.12-1.21,6.11-.22.86-.39,1.75-.65,2.56s-.49,1.63-.73,2.44c-.56,1.65-1.07,3.18-1.63,4.7-.28.77-.56,1.49-.83,2.24.65-1.17,1.71-3,1.83-3.16,2-2.65,7.29-6.62,10.78-5.45a4.36,4.36,0,0,1,2.41,6c-1.07,2.37-4,3.73-6.38,4.27-2.64.6-8.32-.55-9-.7-.69,1.82-1.38,3.59-2.06,5.23-2.12,5.2-4.09,9.45-5.51,12.4l-.23.48h10.34l-3.57,69.63a10,10,0,0,1-9.94,9.44h0a10,10,0,0,1-9.94-9.44l-3.57-69.63h11.1c0-.48-.11-1-.17-1.57-.37-3.21-1-7.81-1.93-13.29-.28-1.58-.6-3.25-.94-5-.72.09-6.45.82-9,0-2.35-.72-5.15-2.29-6-4.74a4.35,4.35,0,0,1,2.85-5.83c3.57-.92,8.6,3.44,10.35,6.23.11.18,1.2,2.44,1.73,3.6-.21-1-.42-2.06-.65-3.13-.33-1.55-.73-3.17-1.11-4.75l-.69-2.45c-.21-.84-.52-1.61-.78-2.44-.41-1.19-.89-2.4-1.36-3.61-1.56.43-6.14,1.62-8.5,1.28s-5.43-1.49-6.69-3.77a4.36,4.36,0,0,1,1.94-6.2c3.39-1.44,9,2.11,11.17,4.6.07.08.47.65.94,1.34-.5-1.17-1-2.34-1.54-3.5-1.55-3.3-3.24-6.62-4.91-9.95-.35-.69-.69-1.39-1-2.09-1.31.37-6.26,1.7-8.73,1.34s-5.44-1.48-6.69-3.76a4.35,4.35,0,0,1,1.93-6.2c3.39-1.45,9,2.1,11.18,4.59.07.09.55.77,1.08,1.55-.89-1.83-1.74-3.65-2.54-5.49a77.42,77.42,0,0,1-3.5-9.7c-.46.14-6.24,1.81-9,1.41-2.44-.35-5.44-1.48-6.69-3.76a4.36,4.36,0,0,1,1.93-6.2c3.4-1.44,9,2.1,11.18,4.59.15.18,1.86,2.67,2.44,3.58,0,0,0-.07,0-.11a56.21,56.21,0,0,1-1.67-10,77.87,77.87,0,0,1-.22-9c.07-2.8.3-5.36.52-7.62.13-1.22.28-2.34.42-3.38l-.06,0c-.06,0-1.3-4.26-1.34-4.54-.55-3.25.32-9.85,3.59-11.54a4.37,4.37,0,0,1,6,2.47c.95,2.42-.09,5.45-1.37,7.55s-5.58,5.16-6.65,5.9c-.13,1.08-.25,2.24-.36,3.52-.17,2.26-.35,4.82-.36,7.61,0,.74,0,1.54,0,2.31.25-1.31.62-3.1.68-3.27,1-3.13,4.82-8.59,8.5-8.58a4.36,4.36,0,0,1,4.2,5c-.27,2.58-2.6,4.79-4.7,6.07s-7.5,2-8.66,2.17c0,1.72.15,3.48.35,5.31a56.08,56.08,0,0,0,1.88,9.85l.21,0c.08-1.24.32-3.83.36-4.05.67-3.22,3.85-9.06,7.52-9.46a4.36,4.36,0,0,1,4.71,4.47c0,2.6-2,5-4,6.55-2.25,1.72-8.35,3.11-8.58,3.16a78.39,78.39,0,0,0,3.6,9.3c1,2.24,2.16,4.46,3.31,6.69,0-.88.35-4.28.4-4.53.66-3.22,3.84-9.06,7.51-9.46a4.36,4.36,0,0,1,4.71,4.47c0,2.6-2,5.05-4,6.55-2.19,1.68-8,3-8.52,3.15.52,1,1,2,1.58,3,1.74,3.29,3.5,6.57,5.14,9.87.57,1.15,1.09,2.3,1.61,3.44.1-1.3.31-3.67.35-3.87.67-3.23,3.85-9.07,7.52-9.46a4.36,4.36,0,0,1,4.71,4.46c0,2.61-2,5.06-4,6.55s-6.84,2.75-8.22,3.08c.85,1.92,1.66,3.84,2.37,5.76.28.84.63,1.68.86,2.5s.49,1.63.74,2.44c.44,1.68.86,3.24,1.23,4.82.2.79.36,1.55.54,2.32-.1-1.33-.23-3.45-.22-3.64.17-3.29,2.43-9.55,6-10.5a4.37,4.37,0,0,1,5.33,3.71,5.16,5.16,0,0,1,.06,1,16.93,16.93,0,0,1,2.28,8.24c0,.22-.35,2.7-.55,4,.4-1,.79-1.95,1.19-3,.57-1.47,1.14-3.05,1.69-4.57q.39-1.2.78-2.43c.29-.81.46-1.63.69-2.46.32-1.22.59-2.49.86-3.76-1.54-.5-6-2-7.79-3.62s-3.72-4.24-3.51-6.83a4.37,4.37,0,0,1,5-4.11c3.62.67,6.36,6.73,6.79,10,0,.1,0,.8,0,1.63.23-1.25.45-2.49.64-3.76.53-3.62,1-7.31,1.4-11,.09-.77.19-1.54.29-2.31-1.3-.42-6.16-2-8-3.7s-3.72-4.24-3.51-6.83a4.37,4.37,0,0,1,5-4.11c3.62.67,6.36,6.73,6.78,10,0,.12,0,1,0,1.89.27-2,.56-4,.92-6a77.54,77.54,0,0,1,2.42-10c-.46-.14-6.2-1.93-8.27-3.78-1.83-1.64-3.71-4.23-3.5-6.83a4.36,4.36,0,0,1,5-4.1c3.63.67,6.37,6.73,6.79,10,0,.24.08,3.26.06,4.34l0-.12a57.88,57.88,0,0,1,4.11-9.25,79.91,79.91,0,0,1,4.81-7.66c1.6-2.3,3.2-4.3,4.64-6.06.78-1,1.52-1.8,2.21-2.59h-.08c-.07,0,1.28-4.27,1.39-4.53,1.34-3,5.7-8,9.37-7.64A4.37,4.37,0,0,1,166.9,206.07Zm-42.29,88.49c-.63-.31-5.47-2.7-7.35-4.75a48.42,48.42,0,0,1-5.05,2.38c.43,1.9.83,3.75,1.17,5.49,1.1,5.51,1.8,10.14,2.25,13.38.09.7.17,1.31.25,1.88h.24l.81-1.58c1.46-2.88,3.5-7.05,5.72-12.15C123.29,297.74,124,296.17,124.61,294.56Zm19.32-70.4s1.17-4.31,1.21-4.59c.46-3.26-.58-9.83-3.9-11.43a4.36,4.36,0,0,0-5.94,2.63c-.89,2.44.24,5.44,1.57,7.51C138.44,220.7,143.92,224.15,143.93,224.16Z" style="fill:#C47979"></path><path d="M73,217.33a4.37,4.37,0,0,1,3.51-5.47c3.65-.49,8.14,4.42,9.56,7.39.13.25,1.58,4.49,1.52,4.49s-6.48.15-9.13-1C76.2,221.75,73.6,219.87,73,217.33Zm93.91-11.26c-.54,2.55-3.09,4.5-5.31,5.54s-7.5,1.23-8.8,1.26c-.7.83-1.45,1.73-2.25,2.74-1.39,1.79-2.94,3.82-4.49,6.14-.41.62-.83,1.3-1.25,2,.94-1,2.23-2.25,2.37-2.36,2.58-2.06,8.76-4.51,11.83-2.47a4.37,4.37,0,0,1,.77,6.45c-1.66,2-4.81,2.57-7.27,2.47s-7.38-2.43-8.42-3c-.91,1.46-1.8,3-2.64,4.63a57.18,57.18,0,0,0-3.87,9.24l.19.1c.75-1,2.38-3,2.54-3.17,2.33-2.32,8.21-5.44,11.48-3.75a4.37,4.37,0,0,1,1.47,6.33c-1.42,2.18-4.5,3.08-6.95,3.25-2.83.2-8.68-2-8.9-2.09a76.72,76.72,0,0,0-2.12,9.74c-.38,2.43-.67,4.91-.93,7.41.51-.71,2.64-3.38,2.82-3.56,2.33-2.32,8.21-5.44,11.49-3.75a4.37,4.37,0,0,1,1.46,6.33c-1.42,2.18-4.49,3.08-7,3.26-2.76.19-8.37-1.9-8.84-2.08-.12,1.13-.25,2.26-.36,3.4-.36,3.7-.7,7.42-1.16,11.07-.15,1.27-.36,2.51-.55,3.76.8-1,2.28-2.89,2.43-3,2.33-2.32,8.21-5.43,11.49-3.74a4.36,4.36,0,0,1,1.46,6.32c-1.42,2.18-4.5,3.09-6.95,3.26s-7.22-1.48-8.55-2c-.35,2.07-.73,4.12-1.21,6.11-.22.86-.39,1.75-.65,2.56s-.49,1.63-.73,2.44c-.56,1.65-1.07,3.18-1.63,4.7-.28.77-.56,1.49-.83,2.24.65-1.17,1.71-3,1.83-3.16,2-2.65,7.29-6.62,10.78-5.45a4.36,4.36,0,0,1,2.41,6c-1.07,2.37-4,3.73-6.38,4.27-2.64.6-8.32-.55-9-.7-.69,1.82-1.38,3.59-2.06,5.23-2.12,5.2-4.09,9.45-5.51,12.4l-.23.48h10.34l-3.57,69.63a10,10,0,0,1-9.94,9.44h0a10,10,0,0,1-9.94-9.44l-3.57-69.63h11.1c0-.48-.11-1-.17-1.57-.37-3.21-1-7.81-1.93-13.29-.28-1.58-.6-3.25-.94-5-.72.09-6.45.82-9,0-2.35-.72-5.15-2.29-6-4.74a4.35,4.35,0,0,1,2.85-5.83c3.57-.92,8.6,3.44,10.35,6.23.11.18,1.2,2.44,1.73,3.6-.21-1-.42-2.06-.65-3.13-.33-1.55-.73-3.17-1.11-4.75l-.69-2.45c-.21-.84-.52-1.61-.78-2.44-.41-1.19-.89-2.4-1.36-3.61-1.56.43-6.14,1.62-8.5,1.28s-5.43-1.49-6.69-3.77a4.36,4.36,0,0,1,1.94-6.2c3.39-1.44,9,2.11,11.17,4.6.07.08.47.65.94,1.34-.5-1.17-1-2.34-1.54-3.5-1.55-3.3-3.24-6.62-4.91-9.95-.35-.69-.69-1.39-1-2.09-1.31.37-6.26,1.7-8.73,1.34s-5.44-1.48-6.69-3.76a4.35,4.35,0,0,1,1.93-6.2c3.39-1.45,9,2.1,11.18,4.59.07.09.55.77,1.08,1.55-.89-1.83-1.74-3.65-2.54-5.49a77.42,77.42,0,0,1-3.5-9.7c-.46.14-6.24,1.81-9,1.41-2.44-.35-5.44-1.48-6.69-3.76a4.36,4.36,0,0,1,1.93-6.2c3.4-1.44,9,2.1,11.18,4.59.15.18,1.86,2.67,2.44,3.58,0,0,0-.07,0-.11a56.21,56.21,0,0,1-1.67-10,77.87,77.87,0,0,1-.22-9c.07-2.8.3-5.36.52-7.62.13-1.22.28-2.34.42-3.38l-.06,0c-.06,0-1.3-4.26-1.34-4.54-.55-3.25.32-9.85,3.59-11.54a4.37,4.37,0,0,1,6,2.47c.95,2.42-.09,5.45-1.37,7.55s-5.58,5.16-6.65,5.9c-.13,1.08-.25,2.24-.36,3.52-.17,2.26-.35,4.82-.36,7.61,0,.74,0,1.54,0,2.31.25-1.31.62-3.1.68-3.27,1-3.13,4.82-8.59,8.5-8.58a4.36,4.36,0,0,1,4.2,5c-.27,2.58-2.6,4.79-4.7,6.07s-7.5,2-8.66,2.17c0,1.72.15,3.48.35,5.31a56.08,56.08,0,0,0,1.88,9.85l.21,0c.08-1.24.32-3.83.36-4.05.67-3.22,3.85-9.06,7.52-9.46a4.36,4.36,0,0,1,4.71,4.47c0,2.6-2,5-4,6.55-2.25,1.72-8.35,3.11-8.58,3.16a78.39,78.39,0,0,0,3.6,9.3c1,2.24,2.16,4.46,3.31,6.69,0-.88.35-4.28.4-4.53.66-3.22,3.84-9.06,7.51-9.46a4.36,4.36,0,0,1,4.71,4.47c0,2.6-2,5.05-4,6.55-2.19,1.68-8,3-8.52,3.15.52,1,1,2,1.58,3,1.74,3.29,3.5,6.57,5.14,9.87.57,1.15,1.09,2.3,1.61,3.44.1-1.3.31-3.67.35-3.87.67-3.23,3.85-9.07,7.52-9.46a4.36,4.36,0,0,1,4.71,4.46c0,2.61-2,5.06-4,6.55s-6.84,2.75-8.22,3.08c.85,1.92,1.66,3.84,2.37,5.76.28.84.63,1.68.86,2.5s.49,1.63.74,2.44c.44,1.68.86,3.24,1.23,4.82.2.79.36,1.55.54,2.32-.1-1.33-.23-3.45-.22-3.64.17-3.29,2.43-9.55,6-10.5a4.37,4.37,0,0,1,5.33,3.71,5.16,5.16,0,0,1,.06,1,16.93,16.93,0,0,1,2.28,8.24c0,.22-.35,2.7-.55,4,.4-1,.79-1.95,1.19-3,.57-1.47,1.14-3.05,1.69-4.57q.39-1.2.78-2.43c.29-.81.46-1.63.69-2.46.32-1.22.59-2.49.86-3.76-1.54-.5-6-2-7.79-3.62s-3.72-4.24-3.51-6.83a4.37,4.37,0,0,1,5-4.11c3.62.67,6.36,6.73,6.79,10,0,.1,0,.8,0,1.63.23-1.25.45-2.49.64-3.76.53-3.62,1-7.31,1.4-11,.09-.77.19-1.54.29-2.31-1.3-.42-6.16-2-8-3.7s-3.72-4.24-3.51-6.83a4.37,4.37,0,0,1,5-4.11c3.62.67,6.36,6.73,6.78,10,0,.12,0,1,0,1.89.27-2,.56-4,.92-6a77.54,77.54,0,0,1,2.42-10c-.46-.14-6.2-1.93-8.27-3.78-1.83-1.64-3.71-4.23-3.5-6.83a4.36,4.36,0,0,1,5-4.1c3.63.67,6.37,6.73,6.79,10,0,.24.08,3.26.06,4.34l0-.12a57.88,57.88,0,0,1,4.11-9.25,79.91,79.91,0,0,1,4.81-7.66c1.6-2.3,3.2-4.3,4.64-6.06.78-1,1.52-1.8,2.21-2.59h-.08c-.07,0,1.28-4.27,1.39-4.53,1.34-3,5.7-8,9.37-7.64A4.37,4.37,0,0,1,166.9,206.07Zm-42.29,88.49c-.63-.31-5.47-2.7-7.35-4.75a48.42,48.42,0,0,1-5.05,2.38c.43,1.9.83,3.75,1.17,5.49,1.1,5.51,1.8,10.14,2.25,13.38.09.7.17,1.31.25,1.88h.24l.81-1.58c1.46-2.88,3.5-7.05,5.72-12.15C123.29,297.74,124,296.17,124.61,294.56Zm19.32-70.4s1.17-4.31,1.21-4.59c.46-3.26-.58-9.83-3.9-11.43a4.36,4.36,0,0,0-5.94,2.63c-.89,2.44.24,5.44,1.57,7.51C138.44,220.7,143.92,224.15,143.93,224.16Z" style="fill:#fff;opacity:0.30000000000000004"></path></g><g id="freepik--Character--inject-3"><g style="clip-path:url(#freepik--clip-path--inject-3)"><path d="M276.52,158.22s-8.15,2.22-18.52-10.74,7.41-28.89,19.26-30.38S293.19,123,301,126.36s17.78-8.52,37.78-1.11,22.59,24.08,23.33,34.08-7,19.63-1.85,34.45,15.56,35.93,12.6,50.75-10,47.78-32.6,80.37-54.45,41.12-94.46,43-72.6-6.67-102.6-41.48-18.89-84.83,7.78-98.9S212.81,216,240.22,206s31.48-12.59,36.3-24.82A31.94,31.94,0,0,0,276.52,158.22Z" style="fill:#263238"></path><path d="M291,146.67s-8.86-10.42-18.75-10.94-6.25,8.85-1,11.46" style="fill:none;stroke:#fff;stroke-linecap:round;stroke-linejoin:round"></path><path d="M350.73,173.3a15.77,15.77,0,0,0,4.29-2.17" style="fill:none;stroke:#fff;stroke-linecap:round;stroke-linejoin:round"></path><path d="M273.65,128.82s2.44-10.17,18.72.81,20.34,33.77,33.36,41.09a31.09,31.09,0,0,0,19.95,3.81" style="fill:none;stroke:#fff;stroke-linecap:round;stroke-linejoin:round"></path><path d="M302.54,129.23c1.62,0,11,5.69,22,21.15s15.86,20.34,22.37,21.16" style="fill:none;stroke:#fff;stroke-linecap:round;stroke-linejoin:round"></path><path d="M240.17,227a174.91,174.91,0,0,1-17.38,6.77c-37,12.2-82.18,19.93-88.28,49.63s15.05,36.21,15.05,36.21" style="fill:none;stroke:#fff;stroke-linecap:round;stroke-linejoin:round"></path><path d="M279.35,201.65s-11,11.21-32.1,22" style="fill:none;stroke:#fff;stroke-linecap:round;stroke-linejoin:round"></path><path d="M141.79,295.59a21.36,21.36,0,0,0-4,9" style="fill:none;stroke:#fff;stroke-linecap:round;stroke-linejoin:round"></path><path d="M287.08,242.33a426,426,0,0,1-73.24,26c-30,7.42-56,12.25-68.51,23.42" style="fill:none;stroke:#fff;stroke-linecap:round;stroke-linejoin:round"></path><path d="M248.37,254.9s-7.78,2.59-7.78,7,1.11,13,1.11,13S229.48,306,227.62,309s-8.52,5.55-8.52,8.52-13.33,22.59-9.26,37.78,11.86,12.59,17.78,8.89,21.49-17.41,22.6-18.52-.37-40,2.22-54.82a270.85,270.85,0,0,0,3.34-30.38C256.15,256,248.37,254.9,248.37,254.9Z" style="fill:#C47979"></path><g style="clip-path:url(#freepik--clip-path-2--inject-3)"><path d="M251.78,296l-7-2.44s-6.33,9-7,17.33-1.33,15-1.33,15-9-5.67-9,.67-9,3.66-9.34,7-14.66,16.66-11,24.33c.81,1.68,4,6,7.76,7.25,4,3.54,8.77,1.56,12.74-.92,5.93-3.71,21.49-17.41,22.6-18.52S250.12,313.07,251.78,296Z" style="opacity:0.30000000000000004"></path></g><path d="M248.37,254.9s-7.78,2.59-7.78,7,1.11,13,1.11,13S229.48,306,227.62,309s-8.52,5.55-8.52,8.52-13.33,22.59-9.26,37.78,11.86,12.59,17.78,8.89,21.49-17.41,22.6-18.52-.37-40,2.22-54.82a270.85,270.85,0,0,0,3.34-30.38C256.15,256,248.37,254.9,248.37,254.9Z" style="fill:none;stroke:#263238;stroke-linecap:round;stroke-linejoin:round"></path><path d="M229.48,340.09s-6.67-13-11.49-21.11-12.59-32.6-12.59-32.6-3.7-6.67-13-5.93-11.49,18.9-10,34.08,13.34,38.53,24.08,47.05,18.06,4.91,25.93-1.86" style="fill:#C47979"></path><g style="clip-path:url(#freepik--clip-path-3--inject-3)"><path d="M232.44,359.72l-3-19.63s-6.67-13-11.49-21.11-12.59-32.6-12.59-32.6a8.36,8.36,0,0,0-.69-1c-3,4.25-6.92,10.77-6.92,10.77l-7.59,22.07s2.59,7.27,12.92,19.6,22.67,17.67,15.67,19-9,2.33-4.67,5.33c1.88,1.3,3.76,3.35,5.83,4.94C224.92,367.07,229.18,364.41,232.44,359.72Z" style="opacity:0.30000000000000004"></path></g><path d="M229.48,340.09s-6.67-13-11.49-21.11-12.59-32.6-12.59-32.6-3.7-6.67-13-5.93-11.49,18.9-10,34.08,13.34,38.53,24.08,47.05,18.06,4.91,25.93-1.86" style="fill:none;stroke:#263238;stroke-linecap:round;stroke-linejoin:round"></path><path d="M189.1,282.68s-4.27,10.24-4.27,18.68,5.37,16.88,5.37,16.88,12.66-18,13.81-25.7S191.45,275.5,189.1,282.68Z" style="fill:#fff;stroke:#263238;stroke-linecap:round;stroke-linejoin:round"></path><path d="M211.33,242.3c.74-4.44-4.47-2.77-7.23,2.75-1,2-1.29,5-1.29,7.62s-12.23,3.34-15.93,7.78-6.3,11.49,2.22,22.23c0,0-1.85,18.89,4.45,19.63s12.22-9.26,11.85-15.93a38.29,38.29,0,0,1,.1-4.54c1.49-2,3.33-4.86,3.33-7.21,0-3.73-1.05-7.11-1.16-10.13.45-3.13.85-6,1.06-8.12C209.47,249,210.59,246.75,211.33,242.3Z" style="fill:#fff"></path><g style="clip-path:url(#freepik--clip-path-4--inject-3)"><path d="M205.4,286.38a38.29,38.29,0,0,1,.1-4.54c1.49-2,3.33-4.86,3.33-7.21,0-3.73-1.05-7.11-1.16-10.13.45-3.13.85-6,1.06-8.12.74-7.41,1.86-9.63,2.6-14.08a3,3,0,0,0-.15-1.83c-1,.28-2,1-2.53,4.64-.83,5.25-3.32,12.44-5,15.21s-6.09.55-9.41,4.7-3.32,5.54-3.32,5.54,6.64,4.14,7.47,7.46,1.66,8-2.49,13c-2.16,2.59-2.37,7.35-1.8,11.33C200.2,302.44,205.76,292.85,205.4,286.38Z" style="fill:#C47979"></path><path d="M205.4,286.38a38.29,38.29,0,0,1,.1-4.54c1.49-2,3.33-4.86,3.33-7.21,0-3.73-1.05-7.11-1.16-10.13.45-3.13.85-6,1.06-8.12.74-7.41,1.86-9.63,2.6-14.08a3,3,0,0,0-.15-1.83c-1,.28-2,1-2.53,4.64-.83,5.25-3.32,12.44-5,15.21s-6.09.55-9.41,4.7-3.32,5.54-3.32,5.54,6.64,4.14,7.47,7.46,1.66,8-2.49,13c-2.16,2.59-2.37,7.35-1.8,11.33C200.2,302.44,205.76,292.85,205.4,286.38Z" style="fill:#fff;opacity:0.5"></path></g><path d="M211.33,242.3c.74-4.44-4.47-2.77-7.23,2.75-1,2-1.29,5-1.29,7.62s-12.23,3.34-15.93,7.78-6.3,11.49,2.22,22.23c0,0-1.85,18.89,4.45,19.63s12.22-9.26,11.85-15.93a38.29,38.29,0,0,1,.1-4.54c1.49-2,3.33-4.86,3.33-7.21,0-3.73-1.05-7.11-1.16-10.13.45-3.13.85-6,1.06-8.12C209.47,249,210.59,246.75,211.33,242.3Z" style="fill:none;stroke:#263238;stroke-linecap:round;stroke-linejoin:round"></path><path d="M193.92,232.67l.69,40.81a2.77,2.77,0,0,0,2.94,2.71h0a2.76,2.76,0,0,0,2.57-2.85l-1.39-40.67Z" style="fill:#fff;stroke:#263238;stroke-linecap:round;stroke-linejoin:round"></path><ellipse cx="196.69" cy="196" rx="38.89" ry="27.6" transform="matrix(0.02, -1, 1, 0.02, -3.83, 388.08)" style="fill:#fff;stroke:#263238;stroke-linecap:round;stroke-linejoin:round"></ellipse><ellipse cx="195.31" cy="195.97" rx="33.93" ry="22.69" transform="translate(-5.15 386.66) rotate(-88.67)" style="fill:#fff"></ellipse><g style="clip-path:url(#freepik--clip-path-5--inject-3)"><path d="M174.57,182.79l26.22-19.89a15.54,15.54,0,0,0-4.69-.85C186.58,161.83,178.22,170.42,174.57,182.79Z" style="fill:#C47979"></path><path d="M217.36,187.29l-41.8,26c3.77,9.79,10.78,16.44,19,16.63,12.53.29,23-14.66,23.47-33.39A50.24,50.24,0,0,0,217.36,187.29Z" style="fill:#C47979"></path><path d="M214.62,177.6a33.49,33.49,0,0,0-3.79-6.81l-26,27.05Z" style="fill:#C47979"></path></g><ellipse cx="195.31" cy="195.97" rx="33.93" ry="22.69" transform="translate(-5.15 386.66) rotate(-88.67)" style="fill:none;stroke:#263238;stroke-linecap:round;stroke-linejoin:round"></ellipse><path d="M184.83,257.25s-2.68-8.06.39-8.83,9.2,0,12.27.77,9.21,3.45,7.67,5-3.06,2.68-7.28,1.53a18,18,0,0,0-8.44,0Z" style="fill:#fff;stroke:#263238;stroke-linecap:round;stroke-linejoin:round"></path><path d="M181.77,263s0-6.14,3.45-7.67,7.67-.39,12.66.38,8.05,3.07,5.37,5.76-5.37,2.68-10,2.68A88.79,88.79,0,0,1,181.77,263Z" style="fill:#fff;stroke:#263238;stroke-linecap:round;stroke-linejoin:round"></path><path d="M183.3,270.29a31.24,31.24,0,0,1-1.53-7.29c0-2.68,8.82-2.3,11.5-3.45s7.29-.39,10,1.92.76,3.83-2.31,3.83a58.62,58.62,0,0,0-8.82.77c-2.3.38-7.29,4.22-7.29,4.22Z" style="fill:#fff;stroke:#263238;stroke-linecap:round;stroke-linejoin:round"></path><path d="M187.14,273.36l7.67-4.61s9.59,3.46,8.82-.38-5.75-5.37-8.06-5.37-9.58,3.84-11.89,4.6-1.91,4.22.39,6.14" style="fill:#fff;stroke:#263238;stroke-linecap:round;stroke-linejoin:round"></path><path d="M203.25,273.36s2.3,7.67.38,10.74a12,12,0,0,1-4.22,4.22" style="fill:none;stroke:#263238;stroke-linecap:round;stroke-linejoin:round"></path><path d="M320.23,225.26s12.59.74,20.37,4.82,13,10,24.45,12.59,11.11,7.78,8.52,23.34-25.19,87.79-29.64,102.6-1.11,42.23-1.11,42.23H237.63s6.29-35.56,5.18-60-3.7-40.74-.37-56.67S248,272.31,248,272.31s-4.08-17,.37-17.41,24.81-4.45,34.45-14.82S311.34,224.15,320.23,225.26Z" style="fill:#C47979"></path><g style="clip-path:url(#freepik--clip-path-6--inject-3)"><path d="M262.15,325.93S255.46,340.51,249.3,354c-4.15,9.1,10.39-16.86,10.16-11.16s-6,29.56-5.61,30.86,8.17-28.05,9.55-31.84,2-21.88,1.86-27.56S262.15,325.93,262.15,325.93Z" style="opacity:0.30000000000000004"></path><path d="M373.57,266c0-.29.09-.56.14-.84a8.15,8.15,0,0,0-6.59-2c-17.66,3-29.33,78.67-29.33,78.67l-1-1.67s-14.67,29.34-18,46.34,12.67-5.67,10.33,1.66c-2,6.17-18.32,15.65-22.07,22.67h35.77s-3.33-27.41,1.11-42.23S371,281.57,373.57,266Z" style="opacity:0.30000000000000004"></path></g><path d="M320.23,225.26s12.59.74,20.37,4.82,13,10,24.45,12.59,11.11,7.78,8.52,23.34-25.19,87.79-29.64,102.6-1.11,42.23-1.11,42.23H237.63s6.29-35.56,5.18-60-3.7-40.74-.37-56.67S248,272.31,248,272.31s-4.08-17,.37-17.41,24.81-4.45,34.45-14.82S311.34,224.15,320.23,225.26Z" style="fill:none;stroke:#263238;stroke-linecap:round;stroke-linejoin:round"></path><path d="M282.15,244.41s-6.67,8.89-10.74,11.12,10,7.4,10,7.4l-17.78,3S261,278.49,261,301.83s1.85,43.34,1.85,43.34l15.93,2.59s9.63-25.93,23-33.71,27-32.22,31.49-35.56,10.37-11.85,10.37-11.85l-15.19-5.93L346.6,257s-5.19-15.19-10.74-21.12-6.3-5.92-16.3-6.29S294.74,232.56,282.15,244.41Z" style="opacity:0.30000000000000004"></path><path d="M282.82,240.08s-6.67,8.89-10.75,11.11,10,7.41,10,7.41l-17.78,3s-2.59,12.6-2.59,35.93,1.85,43.34,1.85,43.34l15.93,2.59s9.63-25.92,23-33.7,27-32.23,31.48-35.56S344.3,262.3,344.3,262.3l-15.18-5.92,18.15-3.71s-5.19-15.18-10.74-21.11-6.3-5.93-16.3-6.3S295.41,228.23,282.82,240.08Z" style="fill:#C47979;stroke:#263238;stroke-linecap:round;stroke-linejoin:round"></path><path d="M298.61,327.64a3.56,3.56,0,1,1-3.56-3.55A3.56,3.56,0,0,1,298.61,327.64Z" style="fill:#263238"></path><path d="M298.61,346.61a3.56,3.56,0,1,1-3.56-3.55A3.56,3.56,0,0,1,298.61,346.61Z" style="fill:#263238"></path><path d="M297.63,221.56s2.22,9.63-1.11,24.82-24.08,48.52-30.74,67.78-1.86,96.31-1.86,96.31h20s-1.48-66.3,5.18-89.64S318,271.57,318,271.57s8.89-10,7.78-27.42-3.7-35.93-3.7-35.93S303.93,219.71,297.63,221.56Z" style="fill:#fff"></path><g style="clip-path:url(#freepik--clip-path-7--inject-3)"><path d="M325.78,244.15c-1.11-17.4-3.7-35.93-3.7-35.93s-18.15,11.49-24.45,13.34a40.84,40.84,0,0,1,.71,7.62l15.2,5.73a177.22,177.22,0,0,1,2.55,28.69c0,3.1.11,6.5.29,9.93,1-1.26,1.62-2,1.62-2S326.89,261.56,325.78,244.15Z" style="fill:#C47979"></path><path d="M298.2,234.84s3,10.63-.66,21.26-14,19.61-14,19.61,12-34.23,12.63-37.22S298.2,234.84,298.2,234.84Z" style="fill:#C47979"></path><path d="M298.2,234.84s3,10.63-.66,21.26-14,19.61-14,19.61,12-34.23,12.63-37.22S298.2,234.84,298.2,234.84Z" style="fill:#fff;opacity:0.5"></path><path d="M325.78,244.15c-1.11-17.4-3.7-35.93-3.7-35.93s-18.15,11.49-24.45,13.34a40.84,40.84,0,0,1,.71,7.62l15.2,5.73a177.22,177.22,0,0,1,2.55,28.69c0,3.1.11,6.5.29,9.93,1-1.26,1.62-2,1.62-2S326.89,261.56,325.78,244.15Z" style="fill:#fff;opacity:0.5"></path></g><path d="M297.63,221.56s2.22,9.63-1.11,24.82-24.08,48.52-30.74,67.78-1.86,96.31-1.86,96.31h20s-1.48-66.3,5.18-89.64S318,271.57,318,271.57s8.89-10,7.78-27.42-3.7-35.93-3.7-35.93S303.93,219.71,297.63,221.56Z" style="fill:none;stroke:#263238;stroke-linecap:round;stroke-linejoin:round"></path><path d="M316,274c-6.45,4.27-13.53,8.19-18.37,8.68-6,.6-10.42-3.82-13.18-8-7,13.82-15,28.8-18.67,39.46-6.67,19.26-1.86,96.31-1.86,96.31h20s-1.48-66.3,5.18-89.64C294.56,301.76,310.39,281,316,274Z" style="fill:#fff;stroke:#263238;stroke-linecap:round;stroke-linejoin:round"></path><path d="M273.93,153.4s-1.12,21.86-.75,28.16-1.85,18.52,1.12,24.44,11.85,18.52,16.66,19.63,11.49-2.59,13.71-4.44,13.33-7.41,17.41-13,4.07-14.44,4.07-14.44,5.93-1.11,7.41-6.3-1.85-9.63-1.85-9.63l-8.15-1.11a29.51,29.51,0,0,1-16.67-9.26c-7.41-8.15-8.89-19.63-16.67-22.6S276.89,149.7,273.93,153.4Z" style="fill:#fff"></path><g style="clip-path:url(#freepik--clip-path-8--inject-3)"><path d="M333.56,187.48c1.48-5.18-1.85-9.63-1.85-9.63l-8.15-1.11a29.51,29.51,0,0,1-16.67-9.26c-7.41-8.15-8.89-19.63-16.67-22.6s-13.33,4.82-16.29,8.52c0,0,4.55-5.51,14.11,1.18s10.52,19.13,23.59,22.64,10.52,4.14,10.52,4.14,1.27,11.79-2.87,21.36-17.58,16.6-22.95,19.76c-2.44,1.43-5.74,1.56-8.63,1.27a8.61,8.61,0,0,0,3.26,1.88c4.82,1.12,11.49-2.59,13.71-4.44s13.33-7.41,17.41-13,4.07-14.44,4.07-14.44S332.08,192.67,333.56,187.48Z" style="fill:#C47979"></path><path d="M333.56,187.48c1.48-5.18-1.85-9.63-1.85-9.63l-8.15-1.11a29.51,29.51,0,0,1-16.67-9.26c-7.41-8.15-8.89-19.63-16.67-22.6s-13.33,4.82-16.29,8.52c0,0,4.55-5.51,14.11,1.18s10.52,19.13,23.59,22.64,10.52,4.14,10.52,4.14,1.27,11.79-2.87,21.36-17.58,16.6-22.95,19.76c-2.44,1.43-5.74,1.56-8.63,1.27a8.61,8.61,0,0,0,3.26,1.88c4.82,1.12,11.49-2.59,13.71-4.44s13.33-7.41,17.41-13,4.07-14.44,4.07-14.44S332.08,192.67,333.56,187.48Z" style="fill:#fff;opacity:0.5"></path></g><path d="M273.93,153.4s-1.12,21.86-.75,28.16-1.85,18.52,1.12,24.44,11.85,18.52,16.66,19.63,11.49-2.59,13.71-4.44,13.33-7.41,17.41-13,4.07-14.44,4.07-14.44,5.93-1.11,7.41-6.3-1.85-9.63-1.85-9.63l-8.15-1.11a29.51,29.51,0,0,1-16.67-9.26c-7.41-8.15-8.89-19.63-16.67-22.6S276.89,149.7,273.93,153.4Z" style="fill:none;stroke:#263238;stroke-linecap:round;stroke-linejoin:round"></path><path d="M286.15,178.22s-1.11,8.89-3,11.48-1.86,6.67,3.33,7" style="fill:none;stroke:#263238;stroke-linecap:round;stroke-linejoin:round"></path><path d="M282.82,202.3s6.29,5.18,15.92,1.11" style="fill:none;stroke:#263238;stroke-linecap:round;stroke-linejoin:round"></path><path d="M295,167.57a9.06,9.06,0,0,1,9.23-1.37c5.27,2.19,4.54,4.69,4.54,4.69" style="fill:none;stroke:#263238;stroke-linecap:round;stroke-linejoin:round;stroke-width:2px"></path><path d="M285.14,167.25s-5.53-6.6-9.54-1.36" style="fill:none;stroke:#263238;stroke-linecap:round;stroke-linejoin:round;stroke-width:2px"></path><path d="M281,178.6c0,1.63-.7,3-1.57,3s-1.58-1.33-1.58-3,.7-3,1.58-3S281,177,281,178.6Z" style="fill:#263238"></path><ellipse cx="301.9" cy="181.56" rx="1.58" ry="2.96" style="fill:#263238"></ellipse><path d="M353.56,257.12s11.49-11.48,20.75-9.26,26.3,14.82,20.37,33.71-20,38.89-31.86,50.74S340.23,361.2,328,364.17,314.3,345.65,318.75,329s28.52-55.56,28.52-55.56Z" style="fill:#C47979"></path><g style="clip-path:url(#freepik--clip-path-9--inject-3)"><path d="M378.8,249.51c4,4.92,13.51,17.75,10.32,24.66-4,8.67-17-3-17,3.34s5.67,11.33,5,18-11.33,12.33-13,17,4.34,5.66.34,11.33-16.67,25.33-28.34,30.33c-9.53,4.09-7.94,9.29-15.78,7.59a7.1,7.1,0,0,0,7.67,2.41c12.22-3,23-20,34.81-31.86s25.93-31.85,31.86-50.74C399.73,265.46,388.09,253.93,378.8,249.51Z" style="opacity:0.30000000000000004"></path></g><path d="M353.56,257.12s11.49-11.48,20.75-9.26,26.3,14.82,20.37,33.71-20,38.89-31.86,50.74S340.23,361.2,328,364.17,314.3,345.65,318.75,329s28.52-55.56,28.52-55.56Z" style="fill:none;stroke:#263238;stroke-linecap:round;stroke-linejoin:round"></path><path d="M331.34,187.11s.62-10.77-3.73-10.54c-2.25.11-2.57,9.43-1.83,12.76s-1.48,8.52-2.59,15.19-.37,13,1.11,15.19,2.59,4.07,2.59,4.07l1.49,12.6,13-.37s-1.48-12.23,0-18.15,4.28-23.27,1.62-31C339.25,176.13,332.71,170,331.05,172c-1.15,1.37,2.78,7.06,3.89,10.76a20.89,20.89,0,0,1,.84,6.95s-1.11,3.34-3,4.82S331.34,187.11,331.34,187.11Z" style="fill:#fff"></path><g style="clip-path:url(#freepik--clip-path-10--inject-3)"><path d="M341.34,217.86c1.48-5.93,4.28-23.27,1.62-31C339.25,176.13,332.71,170,331.05,172a.69.69,0,0,0-.16.32A92,92,0,0,1,339,183.05c3.73,6,.24,24.88.24,29.35s-2,16.92-1,21.15c.18.77,1.23.61,2.83-.16C340.73,229.46,340.29,222.07,341.34,217.86Z" style="fill:#C47979"></path><path d="M341.34,217.86c1.48-5.93,4.28-23.27,1.62-31C339.25,176.13,332.71,170,331.05,172a.69.69,0,0,0-.16.32A92,92,0,0,1,339,183.05c3.73,6,.24,24.88.24,29.35s-2,16.92-1,21.15c.18.77,1.23.61,2.83-.16C340.73,229.46,340.29,222.07,341.34,217.86Z" style="fill:#fff;opacity:0.5"></path></g><path d="M331.34,187.11s.62-10.77-3.73-10.54c-2.25.11-2.57,9.43-1.83,12.76s-1.48,8.52-2.59,15.19-.37,13,1.11,15.19,2.59,4.07,2.59,4.07l1.49,12.6,13-.37s-1.48-12.23,0-18.15,4.28-23.27,1.62-31C339.25,176.13,332.71,170,331.05,172c-1.15,1.37,2.78,7.06,3.89,10.76a20.89,20.89,0,0,1,.84,6.95s-1.11,3.34-3,4.82S331.34,187.11,331.34,187.11Z" style="fill:none;stroke:#263238;stroke-linecap:round;stroke-linejoin:round"></path><polygon points="317.9 177.62 333.19 180.07 333.92 182.62 317.2 180.85 317.9 177.62" style="fill:#263238"></polygon><path d="M346.9,203s4.44-8.52,2.59-10-8.89-7.78-11.48-8.52-7,9.26-7,9.26-.74,3.33,1.48,3.33S346.9,203,346.9,203Z" style="fill:#fff"></path><g style="clip-path:url(#freepik--clip-path-11--inject-3)"><path d="M338.3,184.63a6.47,6.47,0,0,0-1.79,3.64c0,2.92,3.48,7.46,5.47,9.45.81.81,3,2.69,5.26,4.63,1-2,3.78-8.08,2.25-9.31C347.7,191.61,341.09,185.7,338.3,184.63Z" style="fill:#C47979"></path><path d="M338.3,184.63a6.47,6.47,0,0,0-1.79,3.64c0,2.92,3.48,7.46,5.47,9.45.81.81,3,2.69,5.26,4.63,1-2,3.78-8.08,2.25-9.31C347.7,191.61,341.09,185.7,338.3,184.63Z" style="fill:#fff;opacity:0.5"></path></g><path d="M346.9,203s4.44-8.52,2.59-10-8.89-7.78-11.48-8.52-7,9.26-7,9.26-.74,3.33,1.48,3.33S346.9,203,346.9,203Z" style="fill:none;stroke:#263238;stroke-linecap:round;stroke-linejoin:round"></path><path d="M344.3,209.71s5.56-8.52,3.71-10-8.89-7.78-11.48-8.52-7,9.26-7,9.26-.74,3.33,1.48,3.33S344.3,209.71,344.3,209.71Z" style="fill:#fff"></path><g style="clip-path:url(#freepik--clip-path-12--inject-3)"><path d="M336.81,191.59a6.46,6.46,0,0,0-1.79,3.65c0,2.91,3.48,7.46,5.47,9.45.81.81,3,2.69,5.26,4.63,1-2,3.78-8.09,2.25-9.32C346.21,198.57,339.59,192.66,336.81,191.59Z" style="fill:#C47979"></path><path d="M336.81,191.59a6.46,6.46,0,0,0-1.79,3.65c0,2.91,3.48,7.46,5.47,9.45.81.81,3,2.69,5.26,4.63,1-2,3.78-8.09,2.25-9.32C346.21,198.57,339.59,192.66,336.81,191.59Z" style="fill:#fff;opacity:0.5"></path></g><path d="M344.3,209.71s5.56-8.52,3.71-10-8.89-7.78-11.48-8.52-7,9.26-7,9.26-.74,3.33,1.48,3.33S344.3,209.71,344.3,209.71Z" style="fill:none;stroke:#263238;stroke-linecap:round;stroke-linejoin:round"></path><path d="M337.64,223.41s9.79-15.26,8-16.68-8.48-7.43-11-8.14-6.71,8.85-6.71,8.85a4.68,4.68,0,0,0,.09,2.32c.41.25,2.3,1.35,3.62.69a3.07,3.07,0,0,0,1.48-2.6l4.08,1.86-.57,2.65" style="fill:#fff"></path><g style="clip-path:url(#freepik--clip-path-13--inject-3)"><path d="M345.66,206.73c-1.35-1.08-5.62-4.87-8.65-6.9l-.25.38a2.42,2.42,0,0,0-2.49,2.74c.25,2.74,7,3.73,6.72,6.22-.23,2.27-4.59,10.75-2.31,12.58C341.15,217.76,347.07,207.86,345.66,206.73Z" style="fill:#C47979"></path><path d="M345.66,206.73c-1.35-1.08-5.62-4.87-8.65-6.9l-.25.38a2.42,2.42,0,0,0-2.49,2.74c.25,2.74,7,3.73,6.72,6.22-.23,2.27-4.59,10.75-2.31,12.58C341.15,217.76,347.07,207.86,345.66,206.73Z" style="fill:#fff;opacity:0.5"></path></g><path d="M337.64,223.41s9.79-15.26,8-16.68-8.48-7.43-11-8.14-6.71,8.85-6.71,8.85a4.68,4.68,0,0,0,.09,2.32c.41.25,2.3,1.35,3.62.69a3.07,3.07,0,0,0,1.48-2.6l4.08,1.86-.57,2.65" style="fill:none;stroke:#263238;stroke-linecap:round;stroke-linejoin:round"></path><path d="M343.93,353.06c-8.15,7.4-19.26,16.29-25.55,7.4s-4.82-53.71-5.93-63,3.33-27.78.74-36.67-1.48-26.67-1.48-26.67L347.27,229s5.18,27,4.44,43.34,5.93,30.37,7,41.11-2.59,21.12-6.3,25.19" style="fill:#C47979"></path><g style="clip-path:url(#freepik--clip-path-14--inject-3)"><path d="M359.12,323.17c1-9.72-2.6-14.07-2.46-20-2.3-8.9-5.47-19.3-5-30.82.74-16.3-4.44-43.34-4.44-43.34l-14,2c-.5,2.9-.39,9.67,2.81,25.51,5.67,28,12.34,40,8.67,54s-23.67,47-16.33,46.66S356.79,345.51,359.12,323.17Z" style="opacity:0.30000000000000004"></path></g><path d="M343.93,353.06c-8.15,7.4-19.26,16.29-25.55,7.4s-4.82-53.71-5.93-63,3.33-27.78.74-36.67-1.48-26.67-1.48-26.67L347.27,229s5.18,27,4.44,43.34,5.93,30.37,7,41.11-2.59,21.12-6.3,25.19" style="fill:none;stroke:#263238;stroke-linecap:round;stroke-linejoin:round"></path><path d="M285.41,174.15l-22.6-3.71s3,12.23,4.82,13.71,7.78,2.59,11.11,2.22S285.41,174.15,285.41,174.15Z" style="fill:#fff;stroke:#263238;stroke-linecap:round;stroke-linejoin:round"></path><path d="M317.9,177.62,295,175.47s3.89,12.36,5.86,13.74,8,2.1,11.32,1.47S317.9,177.62,317.9,177.62Z" style="fill:#fff"></path><g style="clip-path:url(#freepik--clip-path-15--inject-3)"><path d="M299.28,186.92a6.77,6.77,0,0,0,1.53,2.29c2,1.39,8,2.1,11.32,1.47,2.08-.39,3.82-5.43,4.83-9.13Z" style="fill:#C47979"></path></g><path d="M317.9,177.62,295,175.47s3.89,12.36,5.86,13.74,8,2.1,11.32,1.47S317.9,177.62,317.9,177.62Z" style="fill:none;stroke:#263238;stroke-linecap:round;stroke-linejoin:round"></path><path d="M295,175.47a9.94,9.94,0,0,0-9.54-1.32" style="fill:#fff;stroke:#263238;stroke-linecap:round;stroke-linejoin:round;stroke-width:2px"></path><line x1="262.81" y1="170.44" x2="284.81" y2="174.49" style="fill:#fff;stroke:#263238;stroke-linecap:round;stroke-linejoin:round;stroke-width:2px"></line><line x1="295.17" y1="176.11" x2="317.9" y2="177.62" style="fill:#fff;stroke:#263238;stroke-linecap:round;stroke-linejoin:round;stroke-width:2px"></line><path d="M285.41,174.15l-22.6-3.71s3,12.23,4.82,13.71,7.78,2.59,11.11,2.22S285.41,174.15,285.41,174.15Z" style="fill:#fff"></path><g style="clip-path:url(#freepik--clip-path-16--inject-3)"><path d="M267.39,183.91a1.81,1.81,0,0,0,.24.24c1.85,1.48,7.78,2.59,11.11,2.22,2.21-.25,4.42-5.54,5.66-9.08Z" style="fill:#C47979"></path></g><path d="M285.41,174.15l-22.6-3.71s3,12.23,4.82,13.71,7.78,2.59,11.11,2.22S285.41,174.15,285.41,174.15Z" style="fill:none;stroke:#263238;stroke-linecap:round;stroke-linejoin:round"></path><path d="M291.29,200.31l.13-.51C291.21,199.94,291.15,200.11,291.29,200.31Z" style="fill:#C47979"></path></g></g></svg>